<svg width="515" height="515" viewBox="0 0 515 515" fill="none" xmlns="http://www.w3.org/2000/svg">
<path fill-rule="evenodd" clip-rule="evenodd" d="M434.282 359.03C440.177 348.821 436.679 335.766 426.469 329.871L299.864 256.775L426.47 183.679C436.679 177.785 440.177 164.73 434.283 154.52C428.388 144.31 415.333 140.812 405.123 146.707L278.515 219.804L278.515 73.6113C278.515 61.822 268.958 52.265 257.169 52.265C245.38 52.265 235.823 61.822 235.823 73.6113L235.823 219.801L109.219 146.707C99.0097 140.812 85.9545 144.31 80.0599 154.52C74.1653 164.73 77.6635 177.785 87.8732 183.679L214.479 256.775L87.8738 329.871C77.664 335.766 74.1659 348.821 80.0605 359.03C85.9551 369.24 99.0102 372.738 109.22 366.844L235.823 293.749L235.823 439.94C235.823 451.729 245.38 461.286 257.169 461.286C268.958 461.286 278.515 451.729 278.515 439.94L278.515 293.747L405.123 366.844C415.332 372.738 428.388 369.24 434.282 359.03Z" fill="#FFC700" stroke="black" stroke-width="2.38426"/>
<path d="M98.3716 348.805L416.411 166.461" stroke="black" stroke-width="2.38426"/>
<path d="M257.592 446.378L257.592 67.1713" stroke="black" stroke-width="2.38426"/>
<path d="M416.41 348.805L98.3711 166.461" stroke="black" stroke-width="2.38426"/>
<ellipse cx="96.8651" cy="164.526" rx="6.4375" ry="6.4375" transform="rotate(-60 96.8651 164.526)" fill="white" stroke="black" stroke-width="2.38426"/>
<ellipse cx="416.595" cy="164.526" rx="6.4375" ry="6.4375" transform="rotate(-60 416.595 164.526)" fill="white" stroke="black" stroke-width="2.38426"/>
<ellipse cx="96.8651" cy="349.069" rx="6.4375" ry="6.4375" transform="rotate(-60 96.8651 349.069)" fill="white" stroke="black" stroke-width="2.38426"/>
<ellipse cx="416.595" cy="349.069" rx="6.4375" ry="6.4375" transform="rotate(-60 416.595 349.069)" fill="white" stroke="black" stroke-width="2.38426"/>
<ellipse cx="257.592" cy="257.445" rx="6.4375" ry="6.4375" transform="rotate(180 257.592 257.445)" fill="white" stroke="black" stroke-width="2.38426"/>
<ellipse cx="257.592" cy="441.557" rx="6.4375" ry="6.4375" transform="rotate(180 257.592 441.557)" fill="white" stroke="black" stroke-width="2.38426"/>
<ellipse cx="257.532" cy="72.9033" rx="6.4375" ry="6.4375" transform="rotate(180 257.532 72.9033)" fill="white" stroke="black" stroke-width="2.38426"/>
<path d="M285.204 127.321L286.569 130.142L287.424 127.127L294.13 103.47L314.792 91.3794L317.213 89.9627L314.513 89.2029L261.774 74.3627L259.224 73.6451L260.378 76.0296L285.204 127.321Z" fill="#F24E1E" stroke="black" stroke-width="2.38426" stroke-linecap="square"/>
<path d="M57.5552 393.883L55.4887 396.239L58.5986 395.853L82.9988 392.817L102.181 407.141L104.429 408.819L104.077 406.036L97.2096 351.681L96.8775 349.053L95.1306 351.044L57.5552 393.883Z" fill="#699BF7" stroke="black" stroke-width="2.38426" stroke-linecap="square"/>
<path d="M450.639 297.937L452.4 295.344L449.361 296.112L425.521 302.133L404.719 290.284L402.282 288.895L402.974 291.614L416.491 344.707L417.145 347.274L418.633 345.083L450.639 297.937Z" fill="#0FA958" stroke="black" stroke-width="2.38426" stroke-linecap="square"/>
</svg>
