<svg width="468" height="467" viewBox="0 0 468 467" fill="none" xmlns="http://www.w3.org/2000/svg">
<rect x="30.4149" y="206.086" width="265.025" height="265.025" transform="rotate(-38.6511 30.4149 206.086)" stroke="#FFC700" stroke-width="41.6667"/>
<rect x="30.4149" y="206.086" width="265.025" height="265.025" transform="rotate(-38.6511 30.4149 206.086)" stroke="black" stroke-width="2.77778"/>
<path d="M116.315 207.152C246.258 74.547 341.234 281.849 270.196 290.903C199.157 299.957 236.842 99.6614 428.444 130.796" stroke="#699BF7" stroke-width="41.6667" stroke-linecap="round" stroke-linejoin="round"/>
<path d="M116.315 207.152C246.258 74.547 341.234 281.849 270.196 290.903C199.157 299.957 236.842 99.6614 428.444 130.796" stroke="black" stroke-width="2.77778" stroke-linecap="round" stroke-linejoin="round"/>
<circle cx="195.667" cy="412.945" r="8.33333" transform="rotate(-90 195.667 412.945)" fill="white" stroke="black" stroke-width="2.77778"/>
<circle cx="402.889" cy="247.945" r="8.33333" transform="rotate(-90 402.889 247.945)" fill="white" stroke="black" stroke-width="2.77778"/>
<circle cx="30.6667" cy="206.278" r="8.33333" transform="rotate(-90 30.6667 206.278)" fill="white" stroke="black" stroke-width="2.77778"/>
<circle cx="236.778" cy="40.7227" r="8.33333" transform="rotate(-90 236.778 40.7227)" fill="white" stroke="black" stroke-width="2.77778"/>
<circle cx="117.889" cy="206.278" r="8.33333" transform="rotate(-90 117.889 206.278)" fill="white" stroke="black" stroke-width="2.77778"/>
<circle cx="428.444" cy="131.278" r="8.33333" transform="rotate(-90 428.444 131.278)" fill="white" stroke="black" stroke-width="2.77778"/>
<path d="M195.281 416.295L195.32 413.209L192.984 415.227L164.91 439.484L162.148 441.871L165.798 441.923L181.56 442.151L192.47 452.935L194.795 455.232L194.836 451.964L195.281 416.295Z" fill="#699BF7" stroke="black" stroke-width="2.77778" stroke-linecap="square"/>
<path d="M428.502 127.147L428.463 130.233L430.798 128.215L458.873 103.958L461.635 101.571L457.985 101.519L442.223 101.291L431.313 90.5071L428.988 88.2098L428.947 91.4776L428.502 127.147Z" fill="#F24E1E" stroke="black" stroke-width="2.77778" stroke-linecap="square"/>
<path d="M120.278 209.822L118.123 207.613L117.898 210.691L115.199 247.694L114.933 251.336L117.552 248.791L128.858 237.807L144.198 237.718L147.466 237.699L145.185 235.359L120.278 209.822Z" fill="#0FA958" stroke="black" stroke-width="2.77778" stroke-linecap="square"/>
</svg>
