<svg width="512" height="512" viewBox="0 0 512 512" fill="none" xmlns="http://www.w3.org/2000/svg">
<g clip-path="url(#clip0_2655_68721)">
<rect width="512" height="512" fill="#C7B9FF"/>
<rect width="512" height="512" fill="#FF8577"/>
<rect x="254.577" y="402.489" width="146.963" height="146.963" rx="73.4815" transform="rotate(-180 254.577 402.489)" fill="#F24E1E" stroke="black" stroke-width="2.37037"/>
<path d="M255.502 109.321C255.502 190.486 321.3 256.284 402.465 256.284L402.465 109.321L255.502 109.321Z" fill="#699BF7" stroke="black" stroke-width="2.37037"/>
<rect x="-1.18518" y="1.18519" width="144.593" height="144.593" transform="matrix(-1 1.74846e-07 1.74846e-07 1 253.155 108.563)" fill="#FFC700"/>
<rect width="14.2222" height="14.2222" transform="matrix(-1 1.74846e-07 1.74846e-07 1 261.377 248.412)" fill="white" stroke="black" stroke-width="2.37037"/>
<rect width="14.2222" height="14.2222" transform="matrix(-1 1.74846e-07 1.74846e-07 1 115.836 101.449)" fill="white" stroke="black" stroke-width="2.37037"/>
<rect width="14.2222" height="14.2222" transform="matrix(-1 1.74846e-07 1.74846e-07 1 262.801 101.449)" fill="white" stroke="black" stroke-width="2.37037"/>
<rect width="14.2222" height="14.2222" transform="matrix(-1 1.74846e-07 1.74846e-07 1 115.838 248.636)" fill="white" stroke="black" stroke-width="2.37037"/>
<rect x="-1.18518" y="1.18519" width="144.593" height="144.593" transform="matrix(-1 1.74846e-07 1.74846e-07 1 253.155 108.563)" stroke="black" stroke-width="2.37037"/>
<rect x="254.695" y="255.431" width="146.963" height="146.963" fill="#0FA958"/>
<rect x="247.441" y="395.376" width="14.2222" height="14.2222" fill="white" stroke="black" stroke-width="2.37037"/>
<rect x="394.406" y="248.413" width="14.2222" height="14.2222" fill="white" stroke="black" stroke-width="2.37037"/>
<rect x="247.443" y="248.415" width="14.2222" height="14.2222" fill="white" stroke="black" stroke-width="2.37037"/>
<rect x="394.406" y="395.376" width="14.2222" height="14.2222" fill="white" stroke="black" stroke-width="2.37037"/>
<rect x="254.695" y="255.431" width="146.963" height="146.963" stroke="black" stroke-width="2.37037"/>
<path d="M405.463 405.263L403.199 403.917L403.694 406.504L413.707 458.857L414.292 461.918L415.889 459.242L427.66 439.516L449.23 433.601L451.919 432.864L449.522 431.439L405.463 405.263Z" fill="#FFC700" stroke="black" stroke-width="2.37037" stroke-linecap="square"/>
<path d="M111.245 392.463L113.509 391.117L113.015 393.704L103.001 446.057L102.416 449.118L100.82 446.442L89.048 426.716L67.4787 420.801L64.7893 420.064L67.1868 418.639L111.245 392.463Z" fill="#699BF7" stroke="black" stroke-width="2.37037" stroke-linecap="square"/>
<path d="M241.812 92.7639L242.525 95.2992L240.155 94.1518L192.177 70.9296L189.372 69.5723L192.37 68.7226L214.471 62.4577L225.766 43.1542L227.175 40.7473L227.93 43.4317L241.812 92.7639Z" fill="#F24E1E" stroke="black" stroke-width="2.37037" stroke-linecap="square"/>
<rect width="512" height="512" fill="#5551FF"/>
<path d="M424.045 79.1703L205.497 138.443V157.881L205.456 157.867V293.259C194.452 287.624 181.982 284.444 168.77 284.444C124.26 284.444 88.1777 320.527 88.1777 365.037C88.1777 409.547 124.26 445.63 168.77 445.63C213.28 445.63 249.363 409.547 249.363 365.037C249.363 302.585 249.483 259.095 249.544 196.643L379.956 159.859V245.377C368.952 239.742 356.483 236.563 343.271 236.563C298.761 236.563 262.678 272.645 262.678 317.155C262.678 361.666 298.761 397.748 343.271 397.748C387.781 397.748 423.863 361.666 423.863 317.155C423.863 238.049 424.045 158.463 424.045 79.1703Z" fill="#FFC700" stroke="black" stroke-width="2.37037"/>
<circle cx="424.042" cy="79.1703" r="7.11111" fill="white" stroke="black" stroke-width="2.37037"/>
<circle cx="205.969" cy="138.43" r="7.11111" fill="white" stroke="black" stroke-width="2.37037"/>
<path d="M372.026 411.426L369.762 410.08L370.256 412.667L378.295 454.696L378.88 457.756L380.477 455.08L389.879 439.325L407.103 434.602L409.793 433.864L407.395 432.44L372.026 411.426Z" fill="#C7B9FF" stroke="black" stroke-width="2.37037" stroke-linecap="square"/>
<path d="M163.584 305.78L161.554 304.102L161.645 306.734L163.119 349.499L163.227 352.613L165.216 350.215L176.93 336.095L194.677 334.078L197.448 333.764L195.298 331.987L163.584 305.78Z" fill="#0FA958" stroke="black" stroke-width="2.37037" stroke-linecap="square"/>
<path d="M267.126 421.404L455.79 370.851" stroke="black" stroke-width="2.37037"/>
<path d="M475.244 365.743L468.133 378.06L455.816 370.949L462.927 358.632L475.244 365.743Z" fill="white" stroke="black" stroke-width="2.37037"/>
<path d="M267.347 421.449L260.236 433.766L247.919 426.655L255.03 414.338L267.347 421.449Z" fill="white" stroke="black" stroke-width="2.37037"/>
<path d="M368.417 393.211C369.433 397.004 367.182 400.903 363.389 401.92V401.92C359.595 402.936 355.696 400.685 354.679 396.892V396.892C353.663 393.098 355.914 389.199 359.708 388.182V388.182C363.501 387.166 367.4 389.417 368.417 393.211V393.211Z" fill="white" stroke="black" stroke-width="2.37037"/>
<ellipse cx="156.191" cy="236.257" rx="48.3556" ry="48.1185" fill="#F24E1E" stroke="black" stroke-width="2.37037"/>
<circle cx="155.954" cy="284.376" r="7.11111" fill="white" stroke="black" stroke-width="2.37037"/>
<circle cx="155.954" cy="188.139" r="7.11111" fill="white" stroke="black" stroke-width="2.37037"/>
<circle cx="107.835" cy="236.257" r="7.11111" transform="rotate(90 107.835 236.257)" fill="white" stroke="black" stroke-width="2.37037"/>
<circle cx="204.072" cy="236.257" r="7.11111" transform="rotate(90 204.072 236.257)" fill="white" stroke="black" stroke-width="2.37037"/>
<path d="M174.68 237.205L145.524 253.833L145.524 220.578L174.68 237.205Z" fill="black"/>
<path d="M210.601 114.225L210.568 116.859L212.561 115.137L244.939 87.1609L247.297 85.124L244.181 85.0791L225.836 84.8145L213.133 72.259L211.15 70.2986L211.115 73.0871L210.601 114.225Z" fill="#F24E1E" stroke="black" stroke-width="2.37037" stroke-linecap="square"/>
<rect width="512" height="512" fill="#699BF7"/>
<path d="M255.289 128.791C342.272 86.1456 425.695 111.022 456.533 128.791V407.704C425.695 389.935 342.272 365.058 255.289 407.704C168.305 365.058 84.8828 389.935 54.0444 407.704V128.791C84.8828 111.022 168.305 86.1456 255.289 128.791Z" fill="#F5F5F5"/>
<path d="M255.289 128.791C342.272 86.1456 425.695 111.022 456.533 128.791V407.704C425.695 389.935 342.272 365.058 255.289 407.704M255.289 128.791C168.305 86.1456 84.8828 111.022 54.0444 128.791V407.704C84.8828 389.935 168.305 365.058 255.289 407.704M255.289 128.791V407.704" stroke="black" stroke-width="1.8963"/>
<rect x="247.467" y="119.467" width="17.0667" height="17.0667" fill="white" stroke="black" stroke-width="1.8963"/>
<rect x="247.467" y="400.119" width="17.0667" height="17.0667" fill="white" stroke="black" stroke-width="1.8963"/>
<rect x="140.326" y="94.8148" width="17.0667" height="17.0667" fill="white" stroke="black" stroke-width="1.8963"/>
<rect x="354.607" y="94.8148" width="17.0667" height="17.0667" fill="white" stroke="black" stroke-width="1.8963"/>
<rect x="140.326" y="375.467" width="17.0667" height="17.0667" fill="white" stroke="black" stroke-width="1.8963"/>
<rect x="354.607" y="375.467" width="17.0667" height="17.0667" fill="white" stroke="black" stroke-width="1.8963"/>
<rect x="47.4074" y="119.467" width="17.0667" height="17.0667" fill="white" stroke="black" stroke-width="1.8963"/>
<rect x="448" y="119.467" width="17.0667" height="17.0667" fill="white" stroke="black" stroke-width="1.8963"/>
<rect x="47.4074" y="400.119" width="17.0667" height="17.0667" fill="white" stroke="black" stroke-width="1.8963"/>
<rect x="448" y="400.119" width="17.0667" height="17.0667" fill="white" stroke="black" stroke-width="1.8963"/>
<path d="M361.244 361.244C361.244 347.424 358.522 333.738 353.233 320.969C347.944 308.2 340.192 296.598 330.419 286.825C320.646 277.053 309.044 269.3 296.275 264.011C283.506 258.722 269.821 256 256 256C242.179 256 228.493 258.722 215.725 264.011C202.956 269.3 191.354 277.053 181.581 286.825C171.808 296.598 164.056 308.2 158.767 320.969C153.478 333.738 150.755 347.424 150.755 361.244H207.77C207.77 354.911 209.018 348.639 211.441 342.788C213.865 336.936 217.418 331.62 221.896 327.141C226.375 322.662 231.692 319.11 237.543 316.686C243.395 314.262 249.666 313.015 256 313.015C262.333 313.015 268.605 314.262 274.456 316.686C280.308 319.11 285.625 322.662 290.103 327.141C294.582 331.62 298.134 336.936 300.558 342.788C302.982 348.639 304.229 354.911 304.229 361.244H361.244Z" fill="#F24E1E" stroke="black" stroke-width="2.37037" stroke-miterlimit="10"/>
<path d="M150.582 239.625L148.568 241.225C142.806 245.802 134.628 245.852 128.803 241.348L126.767 239.773L126.085 242.243C124.137 249.308 117.554 254.119 110.175 253.871L107.596 253.784L108.508 256.18C111.117 263.036 108.644 270.769 102.529 274.872L100.392 276.307L102.549 277.714C108.72 281.741 111.301 289.443 108.787 296.33L107.908 298.737L110.486 298.618C117.861 298.278 124.51 303.007 126.557 310.048L127.272 312.508L129.286 310.909C135.049 306.332 143.226 306.281 149.052 310.786L151.088 312.36L151.769 309.891C153.718 302.825 160.3 298.014 167.68 298.262L170.259 298.349L169.347 295.953C166.737 289.098 169.211 281.364 175.325 277.261L177.462 275.827L175.305 274.419C169.134 270.393 166.554 262.691 169.068 255.803L169.946 253.396L167.369 253.515C159.993 253.855 153.344 249.126 151.298 242.086L150.582 239.625Z" fill="#FFC700"/>
<path d="M150.582 239.625L148.568 241.225C142.806 245.802 134.628 245.852 128.803 241.348L126.767 239.773L126.085 242.243C124.137 249.308 117.554 254.119 110.175 253.871L107.596 253.784L108.508 256.18C111.117 263.036 108.644 270.769 102.529 274.872L100.392 276.307L102.549 277.714C108.72 281.741 111.301 289.443 108.787 296.33L107.908 298.737L110.486 298.618C117.861 298.278 124.51 303.007 126.557 310.048L127.272 312.508L129.286 310.909C135.049 306.332 143.226 306.281 149.052 310.786L151.088 312.36L151.769 309.891C153.718 302.825 160.3 298.014 167.68 298.262L170.259 298.349L169.347 295.953C166.737 289.098 169.211 281.364 175.325 277.261L177.462 275.827L175.305 274.419C169.134 270.393 166.554 262.691 169.068 255.803L169.946 253.396L167.369 253.515C159.993 253.855 153.344 249.126 151.298 242.086L150.582 239.625Z" stroke="black" stroke-width="2.37037"/>
<rect width="55.4322" height="217.671" rx="27.7161" transform="matrix(-0.728223 0.68534 0.68534 0.728223 301.683 174.075)" fill="#0FA958" stroke="black" stroke-width="2.37037"/>
<circle cx="126.578" cy="337.067" r="24.8889" fill="#FF8577" stroke="black" stroke-width="2.37037"/>
<path d="M187.064 155.52C186.788 155.577 186.431 155.694 186.07 155.719C184.3 155.833 182.519 155.825 180.766 156.052C179.252 156.247 177.718 156.564 176.289 157.089C175.185 157.495 174.11 158.174 173.229 158.967C171.391 160.613 169.524 162.292 169.106 164.954C169.017 165.531 168.814 166.096 168.652 166.661C168.213 168.198 168.298 168.539 169.764 168.933C172.276 169.612 174.548 170.823 176.78 172.075C178.728 173.169 180.575 174.461 182.356 175.815C183.752 176.876 184.962 178.172 185.7 179.827C186.561 181.753 185.871 184.582 184.118 185.269C182.555 185.883 180.924 186.851 179.187 186.387C177.527 185.94 175.916 185.208 174.386 184.404C173.177 183.765 171.858 183.03 171.066 181.977C169.987 180.538 168.282 179.473 167.986 177.485C167.954 177.278 167.893 177.002 167.747 176.892C166.57 176.014 166.553 174.624 166.424 173.421C166.237 171.665 165.945 171.734 164.427 171.429C162.653 171.075 160.807 170.897 159.005 170.974C157.564 171.035 156.095 171.457 154.736 171.97C153.283 172.518 151.931 173.343 150.56 174.091C150.251 174.258 150.008 174.583 149.797 174.88C147.946 177.481 146.733 180.469 146.652 183.562C146.554 187.09 146.583 190.68 147.902 194.175C148.539 195.862 149.009 197.683 149.675 199.394C150.174 200.671 150.783 201.902 151.392 203.13C152.029 204.414 152.715 205.67 153.388 206.934C153.733 207.585 154.078 207.39 154.679 207.134C156.201 206.487 157.146 204.922 159.001 204.752C160.693 204.593 162.345 203.695 164.013 203.699C166.748 203.703 169.508 204.044 172.215 204.487C174.439 204.853 176.654 205.341 178.667 206.552C179.625 207.129 180.916 207.138 181.906 207.682C183.797 208.723 185.997 209.524 186.853 211.763C187.295 212.926 187.405 214.218 187.64 215.454C187.896 216.775 187.068 217.828 186.768 219.015C186.256 221.019 184.739 222.262 183.448 223.636C182.831 224.291 181.748 224.535 180.843 224.884C179.15 225.547 177.47 226.282 175.717 226.73C174.658 227.002 173.461 226.876 172.345 226.758C171.135 226.628 169.91 225.982 168.761 226.128C166.557 226.404 165.214 224.689 163.36 224.169C161.935 223.77 160.669 222.632 159.468 221.657C158.579 220.933 157.962 219.885 157.126 219.084C156.655 218.633 155.986 218.385 155.292 217.982C155.227 218.259 155.105 218.486 155.129 218.694C155.324 220.421 155.324 222.21 155.807 223.856C156.521 226.299 156.915 228.912 158.733 230.932C159.127 231.371 159.447 232.046 159.455 232.619C159.472 233.705 160.117 234.294 160.791 234.952C161.095 235.249 161.278 235.664 161.541 236.009C162.576 237.347 163.648 238.659 164.654 240.017C165.876 241.663 167.085 243.326 168.684 244.627C170.912 246.443 172.552 248.862 174.982 250.496C177.129 251.943 179.089 253.654 181.504 254.707C182.709 255.235 183.756 256.13 184.954 256.682C186.849 257.56 188.785 258.365 190.753 259.06C192.291 259.605 193.898 259.955 195.485 260.361C198.163 261.048 200.895 260.946 203.618 260.792C204.36 260.747 205.087 260.345 205.829 260.308C208.402 260.174 210.545 258.869 212.712 257.739C214.039 257.048 215.326 256.199 216.243 254.841C217.002 253.715 218.118 252.837 219.06 251.829C219.246 251.63 219.352 251.354 219.502 251.102C217.976 250.085 216.373 249.651 214.673 249.301C213.337 249.025 212.095 248.256 210.846 247.634C209.847 247.134 208.894 246.541 207.944 245.952C206.905 245.309 205.963 244.472 204.86 243.988C202.839 243.106 201.706 241.322 200.257 239.855C199.279 238.863 198.204 237.968 197.177 237.025C196.966 236.83 196.731 236.631 196.597 236.387C195.737 234.798 194.316 233.522 193.927 231.668C193.553 229.896 192.892 228.124 192.884 226.347C192.871 223.718 193.216 221.149 194.872 218.799C196.013 217.182 197.616 216.551 199.085 215.56C201.033 214.243 203.281 214.458 205.395 214.43C207.299 214.405 209.194 215.052 210.91 216.056C211.815 216.584 212.903 216.832 213.755 217.429C215.261 218.482 217.03 219.161 218.146 220.795C218.767 221.706 219.762 222.364 220.614 223.108C220.817 223.287 221.125 223.34 221.377 223.47C221.612 223.592 221.912 223.689 222.055 223.888C223.191 225.498 224.558 227.014 225.334 228.786C225.979 230.258 226.73 231.558 227.7 232.81C228 233.197 227.931 233.863 228.061 234.396C228.345 235.542 228.69 236.676 228.917 237.834C229.002 238.265 228.775 238.745 228.771 239.204C228.767 241.054 228.795 242.907 228.812 244.757C228.812 244.866 228.832 244.984 228.812 245.086C228.402 246.76 228.519 246.886 230.248 246.919C231.579 246.943 232.91 247.041 234.242 247.094C234.457 247.102 234.672 247.057 234.887 247.033C235.922 246.911 236.957 246.805 237.991 246.667C238.941 246.541 239.887 246.374 240.836 246.24C241.81 246.102 242.837 246.139 243.75 245.826C246.656 244.83 249.939 244.602 252.301 242.456C253.62 241.257 255.17 240.196 255.661 238.066C255.97 236.745 255.718 235.477 256.039 234.237C256.66 231.843 256.221 229.477 255.844 227.12C255.621 225.713 254.74 225.348 253.336 226.087C252.41 226.575 251.538 226.652 250.495 226.478C249.606 226.327 248.64 226.734 247.715 226.701C245.812 226.632 243.9 226.534 242.021 226.266C239.874 225.961 237.756 225.465 235.621 225.051C235.548 225.039 235.459 225.047 235.41 225.002C233.032 223.079 229.814 222.551 227.655 220.23C225.995 218.446 224.173 216.734 223.244 214.487C222.716 213.206 222.18 211.983 221.458 210.812C221.275 210.515 221.568 209.967 221.494 209.564C221.007 206.987 220.74 204.451 221.141 201.784C221.434 199.845 222.481 198.337 223.093 196.606C223.451 195.586 224.23 194.98 224.822 194.196C225.054 193.895 225.431 193.647 225.796 193.517C226.608 193.224 227.509 193.041 228.3 192.903C229.465 192.7 230.593 192.062 231.855 192.33C232.882 192.545 233.937 192.643 234.988 192.793C235.187 193.748 235.897 193.598 236.522 193.468C237.216 193.322 237.748 193.338 238.255 193.98C238.547 194.346 239.148 194.48 239.623 194.687C240.913 195.244 242.151 195.87 243.567 196.175C244.505 196.374 245.377 197.106 246.161 197.74C247.541 198.862 248.876 200.053 250.146 201.301C250.787 201.931 251.225 202.764 251.802 203.471C251.992 203.707 252.309 203.943 252.593 203.975C253.372 204.065 253.693 204.532 253.851 205.215C253.88 205.341 253.989 205.447 254.066 205.556C255.345 207.475 256.643 209.385 257.885 211.328C258.092 211.653 258.076 212.125 258.206 212.743C258.173 212.723 258.482 212.812 258.567 213.007C258.847 213.645 258.989 214.348 259.297 214.97C259.614 215.613 260.109 215.669 260.73 215.239C261.809 214.491 262.564 213.531 262.938 212.267C263.011 212.023 263.068 211.71 263.242 211.58C264.427 210.702 264.991 209.422 265.417 208.097C265.843 206.78 266.091 205.406 266.448 204.065C266.606 203.475 266.955 202.922 267.02 202.329C267.166 200.971 267.28 199.602 267.235 198.24C267.215 197.537 267.755 196.736 267.024 196.077C266.996 196.053 267.227 195.797 267.248 195.638C267.296 195.228 267.381 194.793 267.296 194.399C267.085 193.387 266.757 192.395 266.541 191.383C266.395 190.704 266.375 190.001 266.265 189.31C266.14 188.509 266.079 187.68 265.807 186.928C265.312 185.558 264.735 184.213 264.09 182.904C263.238 181.176 262.329 179.473 261.371 177.802C260.868 176.925 260.101 176.193 259.655 175.295C258.952 173.868 257.845 172.86 256.704 171.831C256.173 171.352 255.694 170.766 255.341 170.145C254.427 168.531 252.841 167.689 251.481 166.588C250.479 165.775 249.411 165.043 248.372 164.279C248.174 164.133 247.983 163.885 247.768 163.865C246.477 163.73 245.775 162.743 244.911 161.983C244.675 161.775 244.408 161.588 244.119 161.458C243.421 161.141 242.508 161.048 242.038 160.536C241.189 159.613 240.098 159.544 239.063 159.198C238.426 158.983 237.87 158.499 237.228 158.312C235.207 157.727 233.17 157.207 231.129 156.703C228.365 156.016 225.565 156.105 222.748 156.284C220.918 156.402 219.072 156.255 217.233 156.32C216.596 156.341 215.975 156.686 215.33 156.788C214.319 156.946 213.236 156.845 212.29 157.17C210.196 157.889 207.863 158.206 206.532 160.393C206.045 161.19 205.245 161.8 204.571 162.478C204.149 162.901 204.295 164.625 204.713 165.137C205.761 166.417 206.885 167.665 207.721 169.08C208.549 170.482 209.506 171.311 211.19 171.449C212.639 171.567 213.974 172.173 214.936 173.388C215.066 173.555 215.358 173.624 215.586 173.673C216.625 173.896 217.505 174.303 218.118 175.254C218.913 176.49 219.847 177.636 220.638 178.867C220.809 179.132 220.472 179.737 220.65 179.977C221.563 181.209 221.381 182.648 221.458 184.005C221.519 185.074 221.243 186.082 220.443 187.005C219.133 188.513 217.72 189.81 215.663 189.903C212.846 190.029 210.135 189.822 207.635 188.086C205.476 186.586 203.699 184.834 202.035 182.814C201.024 181.587 200.144 180.339 199.555 178.92C199.089 177.794 198.934 176.538 198.659 175.339C198.342 173.965 197.94 172.6 197.762 171.205C197.607 169.998 197.859 168.73 197.664 167.531C197.372 165.73 198.427 164.267 198.646 162.604C198.784 161.535 198.277 161.056 197.51 160.592C196.451 159.954 195.432 159.247 194.357 158.641C193.614 158.227 193.46 157.536 193.837 157.011C193.996 156.792 195.006 157.003 195.513 157.255C196.305 157.65 197.031 158.202 197.721 158.763C198.176 159.129 198.521 159.629 198.955 160.113C200.046 159.182 201.061 158.324 202.067 157.45C202.165 157.365 202.234 157.202 202.242 157.068C202.356 155.544 203.439 154.906 204.644 154.333C205.018 154.158 205.314 153.825 205.639 153.552C206.84 152.548 208.208 152.012 209.778 151.829C211.328 151.65 212.85 151.264 214.388 150.975C214.677 150.922 214.969 150.894 215.261 150.862C216.909 150.67 218.556 150.455 220.212 150.309C220.857 150.252 221.519 150.366 222.172 150.362C223.613 150.353 225.062 150.227 226.494 150.309C229.238 150.467 231.977 150.723 234.716 150.983C235.13 151.024 235.516 151.317 235.918 151.487C236.279 151.642 236.636 151.914 237.001 151.918C240.053 151.951 242.431 153.695 244.988 154.999C245.56 155.292 246.201 155.455 246.769 155.764C247.524 156.17 248.251 156.637 248.965 157.117C249.886 157.735 250.702 158.662 251.708 158.967C253.218 159.426 253.928 160.779 255.174 161.491C256.197 162.076 257.203 162.747 258.072 163.539C259.383 164.738 260.576 166.068 261.801 167.36C262.357 167.95 262.788 168.689 263.417 169.173C264.573 170.067 265.036 171.323 265.596 172.575C265.864 173.177 266.29 173.9 266.834 174.144C267.718 174.539 268.063 175.144 268.376 175.973C268.899 177.347 269.561 178.668 270.182 180.006C270.51 180.709 270.945 181.371 271.204 182.099C271.444 182.766 271.48 183.501 271.659 184.192C272.178 186.245 272.738 188.289 273.254 190.342C273.453 191.127 273.668 191.927 273.712 192.732C273.85 195.11 274.179 197.52 273.915 199.862C273.676 201.971 273.7 204.15 272.864 206.219C272.191 207.877 271.927 209.698 271.444 211.434C271.05 212.836 270.462 214.096 269.378 215.178C268.502 216.052 268.002 217.295 267.239 218.307C266.744 218.962 266.18 219.694 265.474 220.035C264.009 220.742 263.226 222.112 262.085 223.128C261.887 223.307 261.939 223.88 262.012 224.242C262.248 225.417 262.613 226.567 262.812 227.75C263.49 231.774 262.613 235.725 262.11 239.684C261.972 240.769 261.367 241.826 260.844 242.826C260.227 244.009 259.557 245.192 258.725 246.224C258.222 246.85 257.374 247.195 256.676 247.659C255.884 248.183 255.125 248.773 254.285 249.199C253.255 249.72 252.167 250.138 251.075 250.528C250.304 250.805 249.448 250.858 248.709 251.187C247.22 251.85 245.702 252.183 244.067 252.126C243.551 252.11 243.028 252.419 242.496 252.512C241.794 252.634 241.084 252.707 240.374 252.776C238.953 252.914 237.533 253.093 236.108 253.142C234.668 253.191 233.219 253.146 231.782 253.065C230.674 253 229.575 252.768 228.467 252.695C226.133 252.545 225.045 253.39 223.962 255.561C223.41 256.662 222.704 257.78 221.434 258.369C221.024 258.56 220.849 259.219 220.516 259.621C219.404 260.975 217.939 261.865 216.434 262.694C215.18 263.385 213.954 264.178 212.627 264.686C210.553 265.479 208.5 266.426 206.158 266.247C205.549 266.198 204.916 266.665 204.279 266.735C200.55 267.133 196.832 266.816 193.229 265.909C190.688 265.267 188.33 263.914 185.802 263.182C182.239 262.15 179.516 259.674 176.301 258.085C174.617 257.252 173.315 256.028 171.874 254.943C170.324 253.776 168.785 252.581 167.345 251.285C166.476 250.5 165.823 249.48 165.036 248.594C164.35 247.825 163.619 247.098 162.909 246.35C162.223 245.63 161.205 245.171 161.176 243.948C161.172 243.744 160.811 243.525 160.58 243.362C159.804 242.818 159.001 242.338 158.989 241.192C158.989 240.911 158.591 240.631 158.364 240.363C158.254 240.233 158.031 240.151 157.995 240.009C157.71 239.005 156.923 238.379 156.331 237.595C155.677 236.733 155.393 235.595 154.894 234.603C154.135 233.095 153.141 231.676 152.593 230.099C151.944 228.221 151.688 226.205 151.221 224.262C150.621 221.771 150.714 219.267 150.767 216.726C150.803 214.938 151.745 213.206 151.087 211.389C151.039 211.255 151.095 211.011 151.018 210.971C149.667 210.215 149.675 208.609 148.859 207.536C148.04 206.459 147.268 205.418 147.252 203.955C147.248 203.463 146.741 202.996 146.53 202.488C145.856 200.845 145.02 199.236 144.61 197.529C143.981 194.882 143.433 192.175 143.259 189.468C143.076 186.684 143.178 183.839 143.551 181.075C143.795 179.286 144.667 177.55 145.418 175.868C145.97 174.632 146.708 173.457 147.524 172.376C147.962 171.795 148.725 171.457 149.363 171.035C150.543 170.254 151.647 169.218 152.946 168.787C154.93 168.128 157.037 167.779 159.119 167.527C160.531 167.356 161.992 167.576 163.433 167.62C163.579 167.624 163.729 167.612 163.875 167.637C165.989 167.958 165.855 167.917 166.444 165.856C166.98 163.974 167.734 162.129 168.615 160.377C169.001 159.613 169.914 159.101 170.624 158.515C172.941 156.605 175.392 154.926 178.363 154.186C179.747 154.841 180.766 153.321 182.194 153.613C183.472 153.878 184.877 153.471 186.204 153.597C187.255 153.699 188.269 154.158 189.3 154.463C190.307 154.76 191.317 155.04 192.307 155.386C192.624 155.495 193.074 155.764 193.119 156.02C193.204 156.507 193.042 157.036 192.981 157.548C192.539 157.495 192.072 157.515 191.662 157.369C190.684 157.028 189.73 156.609 188.764 156.223C188.225 156.007 187.685 155.792 187.076 155.548L187.064 155.52ZM251.875 215.165C252.106 214.674 251.936 214.231 251.408 213.706C250.852 213.153 250.402 212.487 249.935 211.845C249.578 211.349 249.322 210.767 248.924 210.308C248.007 209.247 247.045 208.223 246.063 207.219C245.645 206.792 245.114 206.483 244.655 206.093C243.779 205.341 242.959 204.524 242.046 203.821C241.202 203.174 240.321 202.52 239.355 202.093C237.805 201.41 236.603 199.976 234.745 199.931C234.493 199.923 234.25 199.565 234.006 199.366C233.795 199.195 233.613 198.98 233.377 198.862C232.294 198.305 231.186 198.74 230.102 198.866C229.611 198.923 228.962 199.049 228.702 199.39C228.207 200.032 227.951 200.858 227.574 201.597C226.446 203.805 226.904 206.105 227.241 208.373C227.359 209.178 227.894 209.91 228.142 210.702C228.661 212.361 229.757 213.682 230.958 214.771C231.973 215.69 232.841 216.909 234.359 217.283C235.26 217.507 236.052 218.153 236.928 218.535C237.744 218.893 238.58 219.234 239.444 219.433C240.808 219.754 242.2 219.958 243.584 220.198C244.688 220.389 245.795 220.567 246.907 220.718C247.139 220.75 247.39 220.628 247.63 220.58C248.689 220.376 249.756 220.218 250.799 219.954C251.68 219.73 252.597 219.49 253.344 219.019C253.518 218.909 253.068 217.816 252.906 217.173C252.889 217.104 252.865 217.031 252.828 216.966C252.548 216.438 252.268 215.905 251.875 215.161V215.165ZM198.301 226.917C198.626 227.778 199.198 228.945 199.503 230.176C200.006 232.225 201.325 233.709 202.786 235.022C205.095 237.095 207.55 239.009 209.985 240.944C210.505 241.358 211.158 241.659 211.799 241.85C213.138 242.253 214.486 242.525 215.651 243.444C216.312 243.968 217.241 244.179 218.073 244.464C218.986 244.781 219.92 245.053 220.857 245.281C221.235 245.37 221.852 245.452 222.018 245.252C222.647 244.501 223.203 243.659 222.903 242.558C222.809 242.212 222.748 241.838 222.769 241.48C222.846 240.192 223.041 238.899 222.468 237.66C222.16 236.993 221.88 236.31 221.592 235.631C220.788 233.745 220.228 231.729 218.629 230.282C217.737 229.473 217.42 228.225 216.219 227.579C215.346 227.112 214.867 225.969 214.056 225.319C211.844 223.547 209.709 221.628 206.828 220.941C206.223 220.795 205.663 220.311 205.071 220.279C204.21 220.23 203.293 220.328 202.473 220.588C201.568 220.872 200.558 221.234 199.925 221.884C198.728 223.116 198.5 224.803 198.309 226.917H198.301ZM164.11 208.511L164.074 208.784C161.866 208.739 159.857 209.357 158.043 210.601C157.394 211.048 156.887 211.593 157.422 212.426C157.877 213.137 158.323 213.873 158.895 214.491C160.222 215.921 161.619 217.291 163.002 218.669C163.144 218.811 163.396 218.844 163.595 218.929C164.885 219.498 166.16 220.116 167.475 220.624C168.339 220.962 169.264 221.36 170.157 221.352C171.825 221.336 173.566 222.173 175.181 221.067C175.283 220.998 175.478 221.08 175.616 221.039C176.407 220.791 177.247 220.632 177.965 220.246C178.956 219.714 179.844 218.99 180.794 218.377C181.748 217.759 182.58 215.47 181.938 214.613C181.232 213.67 180.372 212.637 179.341 212.186C177.048 211.186 174.65 210.341 172.219 209.772C169.565 209.15 166.817 208.914 164.11 208.507V208.511ZM180.364 183.359C180.863 183.168 181.362 182.969 181.865 182.782C183.16 182.306 183.387 181.973 182.596 180.888C181.403 179.25 180.201 177.534 178.091 176.888C177.827 176.807 177.559 176.632 177.369 176.429C175.92 174.864 174 174.201 172.061 173.563C171.529 173.388 171.046 173.075 170.514 172.909C170.125 172.787 169.621 172.661 169.301 172.815C169.078 172.925 168.932 173.539 169.013 173.864C169.171 174.49 169.504 175.075 169.78 175.673C170.157 176.498 170.38 177.477 170.973 178.099C172.056 179.237 173.055 180.44 174.524 181.249C176.379 182.274 178.083 183.477 180.364 183.355V183.359ZM210.566 178.302C210.265 177.392 210.103 176.636 209.774 175.961C208.723 173.799 207.692 171.616 206.487 169.539C205.805 168.364 204.803 167.372 203.926 166.32C203.845 166.222 203.606 166.259 203.309 166.214C202.928 169.34 203.277 172.209 204.864 174.921C205.326 175.709 205.424 176.709 205.74 177.595C205.842 177.88 206.093 178.14 206.337 178.339C206.645 178.599 207.043 178.754 207.347 179.018C208.135 179.701 208.837 180.497 209.681 181.099C210.505 181.684 211.462 182.07 212.355 182.558C212.773 182.786 213.179 183.038 213.601 183.286C214.283 181.81 212.282 178.839 210.566 178.302V178.302Z" fill="black"/>
</g>
<defs>
<clipPath id="clip0_2655_68721">
<rect width="512" height="512" fill="white"/>
</clipPath>
</defs>
</svg>
